Coordinates
version=1
nRows=27
nColumns=38
inDegrees=no

Units are S.I. units (second, meters, Newtons, ...)
If the header above contains a line with 'inDegrees', this indicates whether rotational values are in degrees (yes) or radians (no).

endheader
time	pelvis_tilt	pelvis_list	pelvis_rotation	pelvis_tx	pelvis_ty	pelvis_tz	hip_flexion_r	hip_adduction_r	hip_rotation_r	knee_angle_r	ankle_angle_r	subtalar_angle_r	mtp_angle_r	hip_flexion_l	hip_adduction_l	hip_rotation_l	knee_angle_l	ankle_angle_l	subtalar_angle_l	mtp_angle_l	lumbar_extension	lumbar_bending	lumbar_rotation	arm_flex_r	arm_add_r	arm_rot_r	elbow_flex_r	pro_sup_r	wrist_flex_r	wrist_dev_r	arm_flex_l	arm_add_l	arm_rot_l	elbow_flex_l	pro_sup_l	wrist_flex_l	wrist_dev_l
1.51	-0.105787	1.31492	-1.37396	0.847952	0.241636	0.955205	0.0417989	-0.149977	-0.255819	1.58226	-0.0843978	0	0	-0.167499	-0.0521379	-0.402063	0.35608	-0.201937	0	0	-0.406097	0.0276188	-0.222346	-0.000532274	-0.440529	0.681261	0.696418	0.767461	0	0	-0.345195	-0.383034	-0.0710371	0.983456	1.5708	0	0
1.52	-0.125814	1.31501	-1.35466	0.848554	0.232697	0.956372	0.0733933	-0.148109	-0.251102	1.5912	-0.080319	0	0	-0.181849	-0.0553602	-0.39577	0.346538	-0.194394	0	0	-0.402206	0.0351125	-0.230102	0.0502983	-0.472875	0.839451	0.699802	0.61293	0	0	-0.338493	-0.384887	-0.0693713	0.981327	1.5708	0	0
1.53	-0.147655	1.31643	-1.33247	0.849277	0.223671	0.957175	0.104221	-0.145583	-0.247672	1.5921	-0.0761967	0	0	-0.193691	-0.0595391	-0.390934	0.338575	-0.190016	0	0	-0.401092	0.041818	-0.231068	0.0544352	-0.473751	0.838808	0.69841	0.618251	0	0	-0.327537	-0.389301	-0.0643721	0.983108	1.5708	0	0
1.54	-0.169879	1.31728	-1.30904	0.85006	0.214679	0.957887	0.132558	-0.142372	-0.245038	1.58752	-0.0702097	0	0	-0.20536	-0.0644275	-0.38651	0.331233	-0.186383	0	0	-0.400613	0.049239	-0.232693	0.0582594	-0.475182	0.837835	0.697801	0.624457	0	0	-0.316361	-0.392636	-0.0616867	0.986245	1.5708	0	0
1.55	-0.191877	1.31653	-1.2852	0.850909	0.205774	0.958581	0.157687	-0.138369	-0.243457	1.57863	-0.0621483	0	0	-0.218371	-0.0698821	-0.381627	0.32386	-0.18266	0	0	-0.401846	0.0572977	-0.234474	0.0617496	-0.476911	0.835786	0.697857	0.631899	0	0	-0.304878	-0.395354	-0.0605562	0.990605	1.5708	0	0
1.56	-0.212409	1.31435	-1.26193	0.851821	0.196918	0.959251	0.179808	-0.134185	-0.244474	1.56555	-0.0535751	0	0	-0.232871	-0.0757923	-0.376617	0.316548	-0.178661	0	0	-0.404567	0.0656718	-0.236732	0.0649441	-0.478609	0.832919	0.698183	0.639903	0	0	-0.293348	-0.397528	-0.0609358	0.996145	1.5708	0	0
1.57	-0.232098	1.31243	-1.23935	0.852692	0.187951	0.959759	0.20022	-0.130524	-0.24949	1.54743	-0.0445383	0	0	-0.247105	-0.0820075	-0.374861	0.310229	-0.176846	0	0	-0.40626	0.0737318	-0.2382	0.068683	-0.48161	0.835729	0.698783	0.638848	0	0	-0.281144	-0.400369	-0.0589362	1.00134	1.5708	0	0
1.58	-0.249321	1.30944	-1.21878	0.853607	0.179066	0.960236	0.217234	-0.127154	-0.259053	1.52356	-0.0347417	0	0	-0.262624	-0.0877996	-0.373407	0.303495	-0.172559	0	0	-0.40951	0.0818061	-0.240988	0.0749363	-0.48513	0.844098	0.699295	0.63501	0	0	-0.269645	-0.401207	-0.0613402	1.00796	1.5708	0	0
1.59	-0.264656	1.30539	-1.20019	0.854524	0.170297	0.960674	0.231542	-0.123352	-0.271376	1.49369	-0.0254193	0	0	-0.279513	-0.0933798	-0.372475	0.296261	-0.168456	0	0	-0.414401	0.0898577	-0.243635	0.0813861	-0.488896	0.851927	0.700766	0.631324	0	0	-0.25865	-0.401636	-0.0655138	1.01577	1.5708	0	0
1.6	-0.279709	1.3016	-1.1818	0.855335	0.161577	0.960948	0.243825	-0.118072	-0.284334	1.45601	-0.0208615	0	0	-0.296963	-0.0984889	-0.370421	0.28721	-0.163796	0	0	-0.423396	0.0969115	-0.239685	0.0447951	-0.465306	0.715087	0.698759	0.774476	0	0	-0.244241	-0.402971	-0.0676659	1.02871	1.5708	0	0
1.61	-0.291006	1.29302	-1.16668	0.856217	0.153056	0.961549	0.247289	-0.110512	-0.297578	1.40919	-0.0205949	0	0	-0.318321	-0.105431	-0.368715	0.278775	-0.160136	0	0	-0.430296	0.106935	-0.252137	0.106464	-0.500216	0.897623	0.705614	0.59748	0	0	-0.241437	-0.399915	-0.0840207	1.03708	1.5708	0	0
1.62	-0.305901	1.2878	-1.14805	0.856916	0.144383	0.961821	0.250634	-0.100408	-0.307655	1.35343	-0.0207993	0	0	-0.335557	-0.112396	-0.367981	0.271182	-0.157499	0	0	-0.437146	0.11536	-0.253536	0.110064	-0.501182	0.895776	0.706032	0.602735	0	0	-0.230193	-0.400603	-0.0878086	1.0464	1.5708	0	0
1.63	-0.317689	1.28098	-1.13244	0.857507	0.135827	0.962135	0.246996	-0.0877845	-0.313958	1.28758	-0.0237028	0	0	-0.354202	-0.119702	-0.366094	0.263687	-0.155786	0	0	-0.446335	0.123485	-0.254467	0.113319	-0.501422	0.891895	0.706612	0.609646	0	0	-0.218889	-0.402236	-0.0906871	1.05668	1.5708	0	0
1.64	-0.327226	1.27454	-1.11914	0.858023	0.127258	0.962343	0.238462	-0.0738329	-0.316379	1.21166	-0.0279552	0	0	-0.372118	-0.126639	-0.364789	0.257181	-0.15388	0	0	-0.45544	0.130745	-0.254896	0.115926	-0.500716	0.886789	0.706282	0.617289	0	0	-0.207396	-0.404452	-0.0923792	1.06692	1.5708	0	0
1.65	-0.336146	1.27024	-1.10715	0.858405	0.118562	0.96229	0.230378	-0.0611741	-0.315648	1.13464	-0.0313087	0	0	-0.387367	-0.132509	-0.364043	0.252399	-0.151457	0	0	-0.462259	0.136762	-0.254738	0.117576	-0.499315	0.880736	0.705069	0.625235	0	0	-0.195411	-0.405777	-0.0942309	1.0762	1.5708	0	0
1.66	-0.341042	1.2633	-1.09745	0.858836	0.109799	0.962396	0.209633	-0.0456746	-0.319069	1.03306	-0.0424326	0	0	-0.4056	-0.139321	-0.3622	0.247333	-0.149462	0	0	-0.472039	0.143441	-0.255564	0.117802	-0.497083	0.870483	0.704427	0.637335	0	0	-0.183443	-0.407433	-0.0958359	1.08603	1.5708	0	0
1.67	-0.34593	1.25785	-1.08736	0.85914	0.100757	0.962281	0.184227	-0.0288167	-0.321207	0.920249	-0.0514392	0	0	-0.421747	-0.146376	-0.361278	0.24446	-0.14589	0	0	-0.479309	0.149235	-0.255575	0.113109	-0.491848	0.84877	0.70165	0.660964	0	0	-0.170669	-0.409953	-0.0935347	1.0938	1.5708	0	0
1.68	-0.34515	1.24962	-1.08177	0.859412	0.091632	0.962207	0.147277	-0.0100368	-0.322025	0.792252	-0.0664108	0	0	-0.441621	-0.153776	-0.360227	0.240877	-0.14349	0	0	-0.489343	0.155383	-0.258825	0.118959	-0.492787	0.860261	0.702634	0.650662	0	0	-0.161297	-0.412416	-0.0947532	1.10372	1.5708	0	0
1.69	-0.341895	1.23997	-1.07867	0.859441	0.0821861	0.962171	0.0981234	0.0134028	-0.316816	0.639967	-0.0964782	0	0	-0.463594	-0.162377	-0.357868	0.237985	-0.14224	0	0	-0.50411	0.160282	-0.255243	0.0795309	-0.468151	0.727746	0.703155	0.783332	0	0	-0.148396	-0.417409	-0.0892216	1.11746	1.5708	0	0
1.7	-0.330561	1.22757	-1.08084	0.859457	0.0726189	0.961901	0.0343993	0.0405835	-0.298355	0.460173	-0.142141	0	0	-0.489367	-0.170152	-0.359449	0.234421	-0.139728	0	0	-0.514081	0.166246	-0.268549	0.132943	-0.498357	0.899153	0.71156	0.61001	0	0	-0.148222	-0.4207	-0.096832	1.12735	1.5708	0	0
1.71	-0.31953	1.22829	-1.08724	0.858751	0.0620994	0.960234	-0.00526717	0.0546883	-0.286421	0.309764	-0.184768	0	0	-0.50287	-0.171368	-0.360085	0.234318	-0.13367	0	0	-0.513133	0.162146	-0.271682	0.125193	-0.493954	0.88676	0.712421	0.621436	0	0	-0.143658	-0.426195	-0.0940702	1.13763	1.5708	0	0
1.72	-0.307676	1.23043	-1.09563	0.85786	0.0513374	0.958328	-0.0577169	0.068864	-0.240883	0.136844	-0.239188	0	0	-0.515379	-0.171349	-0.360997	0.234448	-0.126968	0	0	-0.510344	0.156431	-0.274397	0.117239	-0.489327	0.875475	0.712958	0.631668	0	0	-0.140226	-0.431373	-0.0915664	1.14747	1.5708	0	0
1.73	-0.224812	1.34737	-1.20968	0.850414	0.0351183	0.941533	0.179883	-0.0227088	-0.196131	0.225979	-0.27811	0	0	-0.418564	-0.102686	-0.382221	0.272414	-0.0774523	0	0	-0.380894	0.0606081	-0.272197	0.082964	-0.475236	0.885194	0.706316	0.618029	0	0	-0.171346	-0.449509	-0.087663	1.16287	1.5708	0	0
1.74	-0.207361	1.35763	-1.22902	0.849227	0.0243188	0.93875	0.178372	-0.0289	-0.193491	0.169565	-0.27159	0	0	-0.421349	-0.097769	-0.383727	0.27558	-0.0706342	0	0	-0.369594	0.0505677	-0.271518	0.0801359	-0.472477	0.889619	0.705056	0.6149	0	0	-0.16985	-0.452524	-0.0864747	1.17064	1.5708	0	0
1.75	-0.191103	1.36733	-1.24709	0.847942	0.013422	0.936025	0.176132	-0.0337375	-0.189699	0.117107	-0.265989	0	0	-0.423696	-0.094269	-0.385216	0.280103	-0.0645893	0	0	-0.358597	0.0413098	-0.270748	0.0776228	-0.469313	0.894221	0.703108	0.612034	0	0	-0.168978	-0.455167	-0.0854977	1.17772	1.5708	0	0
1.76	-0.179062	1.37642	-1.26042	0.846676	0.0023864	0.933435	0.173973	-0.0361099	-0.186696	0.0710086	-0.26106	0	0	-0.425351	-0.0927757	-0.387141	0.286359	-0.0592711	0	0	-0.347582	0.0336891	-0.270106	0.0753558	-0.465857	0.899009	0.700064	0.60934	0	0	-0.168499	-0.456811	-0.0849159	1.18343	1.5708	0	0
1.77	-0.168765	1.38292	-1.27155	0.845561	-0.00855542	0.931167	0.170911	-0.0365429	-0.186819	0.0348341	-0.256694	0	0	-0.428553	-0.0928008	-0.38971	0.29394	-0.0549316	0	0	-0.339496	0.0280504	-0.269799	0.0740604	-0.463169	0.903789	0.697754	0.606644	0	0	-0.16791	-0.457337	-0.0851344	1.18849	1.5708	0	0
